<svg width="165" height="89" viewBox="0 0 165 89" fill="none" xmlns="http://www.w3.org/2000/svg">
<path d="M160 5.04429C160 5.04429 145.783 10.2927 137.877 11.7803C133.634 8.73155 127.995 6.57064 121.722 5.58986C115.449 4.60913 108.846 4.85581 102.806 6.29662C96.7649 7.73743 91.5774 10.3028 87.9461 13.6458C84.3142 16.9888 82.4133 20.9481 82.5 24.9883V29.391C70.1183 29.5915 57.8499 27.8756 46.7867 24.3959C35.7234 20.9162 26.2091 15.7807 19.0909 9.44694C19.0909 9.44694 -9.09091 49.071 54.3182 66.6816C39.8083 72.8361 22.5232 75.9223 5 75.4869C68.4091 97.5002 145.909 75.4869 145.909 24.8562C145.903 23.6299 145.714 22.4065 145.345 21.202C152.536 16.7707 160 5.04429 160 5.04429Z" stroke="black" stroke-width="8.10776" stroke-linecap="round" stroke-linejoin="round"/>
</svg>
